<mxfile host="app.diagrams.net" modified="2024-05-25T01:56:47.297Z" agent="Mozilla/5.0 (Windows NT 10.0; Win64; x64) AppleWebKit/537.36 (KHTML, like Gecko) Chrome/124.0.0.0 Safari/537.36" etag="hXc535w66_ykunkEeKR_" version="24.4.3" type="github">
  <diagram name="第 1 页" id="DW7_3Bq0a3bvPTooyLFo">
    <mxGraphModel dx="2261" dy="746" grid="1" gridSize="10" guides="1" tooltips="1" connect="1" arrows="1" fold="1" page="1" pageScale="1" pageWidth="827" pageHeight="1169" math="0" shadow="0">
      <root>
        <mxCell id="0" />
        <mxCell id="1" parent="0" />
        <mxCell id="RMcQa0y9j6y76Bn0nbYR-1" value="FH系统" style="whiteSpace=wrap;html=1;aspect=fixed;labelBackgroundColor=none;fillColor=#09555B;strokeColor=#BAC8D3;fontColor=#EEEEEE;rounded=1;" parent="1" vertex="1">
          <mxGeometry x="80" y="218.5" width="130" height="130" as="geometry" />
        </mxCell>
        <mxCell id="RMcQa0y9j6y76Bn0nbYR-3" value="FH数据库" style="shape=cylinder3;whiteSpace=wrap;html=1;boundedLbl=1;backgroundOutline=1;size=15;labelBackgroundColor=none;fillColor=#09555B;strokeColor=#BAC8D3;fontColor=#EEEEEE;rounded=1;" parent="1" vertex="1">
          <mxGeometry x="300" y="585" width="65" height="180" as="geometry" />
        </mxCell>
        <mxCell id="hyk5TnRB2j8q7CAmKHLL-5" style="edgeStyle=orthogonalEdgeStyle;rounded=1;orthogonalLoop=1;jettySize=auto;html=1;entryX=0;entryY=0.5;entryDx=0;entryDy=0;labelBackgroundColor=none;strokeColor=#0B4D6A;fontColor=default;" edge="1" parent="1" source="RMcQa0y9j6y76Bn0nbYR-6" target="hyk5TnRB2j8q7CAmKHLL-4">
          <mxGeometry relative="1" as="geometry" />
        </mxCell>
        <mxCell id="RMcQa0y9j6y76Bn0nbYR-6" value="FH每天凌晨3点定时job" style="shape=process;whiteSpace=wrap;html=1;backgroundOutline=1;labelBackgroundColor=none;fillColor=#09555B;strokeColor=#BAC8D3;fontColor=#EEEEEE;rounded=1;" parent="1" vertex="1">
          <mxGeometry x="340" y="249" width="140" height="60" as="geometry" />
        </mxCell>
        <mxCell id="RMcQa0y9j6y76Bn0nbYR-9" value="" style="endArrow=classic;html=1;rounded=1;exitX=-0.043;exitY=0.567;exitDx=0;exitDy=0;exitPerimeter=0;entryX=1;entryY=0.5;entryDx=0;entryDy=0;labelBackgroundColor=none;strokeColor=#0B4D6A;fontColor=default;" parent="1" source="RMcQa0y9j6y76Bn0nbYR-6" target="RMcQa0y9j6y76Bn0nbYR-1" edge="1">
          <mxGeometry width="50" height="50" relative="1" as="geometry">
            <mxPoint x="760" y="430" as="sourcePoint" />
            <mxPoint x="810" y="380" as="targetPoint" />
          </mxGeometry>
        </mxCell>
        <mxCell id="RMcQa0y9j6y76Bn0nbYR-10" value="客户端" style="rounded=1;whiteSpace=wrap;html=1;labelBackgroundColor=none;fillColor=#09555B;strokeColor=#BAC8D3;fontColor=#EEEEEE;" parent="1" vertex="1">
          <mxGeometry x="-140" y="245.5" width="120" height="60" as="geometry" />
        </mxCell>
        <mxCell id="RMcQa0y9j6y76Bn0nbYR-11" value="" style="endArrow=classic;html=1;rounded=1;exitX=1;exitY=0.5;exitDx=0;exitDy=0;entryX=0;entryY=0.427;entryDx=0;entryDy=0;entryPerimeter=0;labelBackgroundColor=none;strokeColor=#0B4D6A;fontColor=default;" parent="1" source="RMcQa0y9j6y76Bn0nbYR-10" target="RMcQa0y9j6y76Bn0nbYR-1" edge="1">
          <mxGeometry width="50" height="50" relative="1" as="geometry">
            <mxPoint x="390" y="465.5" as="sourcePoint" />
            <mxPoint x="440" y="415.5" as="targetPoint" />
          </mxGeometry>
        </mxCell>
        <mxCell id="RMcQa0y9j6y76Bn0nbYR-47" style="edgeStyle=orthogonalEdgeStyle;rounded=1;orthogonalLoop=1;jettySize=auto;html=1;entryX=1;entryY=0.5;entryDx=0;entryDy=0;exitX=0.5;exitY=1;exitDx=0;exitDy=0;labelBackgroundColor=none;strokeColor=#0B4D6A;fontColor=default;" parent="1" source="RMcQa0y9j6y76Bn0nbYR-12" target="RMcQa0y9j6y76Bn0nbYR-39" edge="1">
          <mxGeometry relative="1" as="geometry" />
        </mxCell>
        <mxCell id="RMcQa0y9j6y76Bn0nbYR-12" value="核对数据" style="rhombus;whiteSpace=wrap;html=1;labelBackgroundColor=none;fillColor=#09555B;strokeColor=#BAC8D3;fontColor=#EEEEEE;rounded=1;" parent="1" vertex="1">
          <mxGeometry x="797" y="440" width="76" height="80" as="geometry" />
        </mxCell>
        <mxCell id="RMcQa0y9j6y76Bn0nbYR-34" value="发送警告到微信群" style="rounded=1;whiteSpace=wrap;html=1;labelBackgroundColor=none;fillColor=#09555B;strokeColor=#BAC8D3;fontColor=#EEEEEE;" parent="1" vertex="1">
          <mxGeometry x="999" y="450" width="120" height="60" as="geometry" />
        </mxCell>
        <mxCell id="RMcQa0y9j6y76Bn0nbYR-39" value="生成当天库存记录" style="rounded=1;whiteSpace=wrap;html=1;labelBackgroundColor=none;fillColor=#09555B;strokeColor=#BAC8D3;fontColor=#EEEEEE;" parent="1" vertex="1">
          <mxGeometry x="490" y="680" width="120" height="60" as="geometry" />
        </mxCell>
        <mxCell id="RMcQa0y9j6y76Bn0nbYR-44" value="" style="endArrow=classic;html=1;rounded=1;exitX=0;exitY=0.5;exitDx=0;exitDy=0;labelBackgroundColor=none;strokeColor=#0B4D6A;fontColor=default;" parent="1" source="RMcQa0y9j6y76Bn0nbYR-39" edge="1">
          <mxGeometry width="50" height="50" relative="1" as="geometry">
            <mxPoint x="420" y="805" as="sourcePoint" />
            <mxPoint x="370" y="710" as="targetPoint" />
          </mxGeometry>
        </mxCell>
        <mxCell id="RMcQa0y9j6y76Bn0nbYR-56" value="清除历史的库存变动历史" style="rounded=1;whiteSpace=wrap;html=1;labelBackgroundColor=none;fillColor=#09555B;strokeColor=#BAC8D3;fontColor=#EEEEEE;" parent="1" vertex="1">
          <mxGeometry x="490" y="595" width="120" height="60" as="geometry" />
        </mxCell>
        <mxCell id="RMcQa0y9j6y76Bn0nbYR-57" value="" style="endArrow=classic;html=1;rounded=1;entryX=1;entryY=0.5;entryDx=0;entryDy=0;labelBackgroundColor=none;strokeColor=#0B4D6A;fontColor=default;" parent="1" target="RMcQa0y9j6y76Bn0nbYR-56" edge="1">
          <mxGeometry width="50" height="50" relative="1" as="geometry">
            <mxPoint x="830" y="625" as="sourcePoint" />
            <mxPoint x="980" y="575" as="targetPoint" />
          </mxGeometry>
        </mxCell>
        <mxCell id="RMcQa0y9j6y76Bn0nbYR-58" value="" style="endArrow=classic;html=1;rounded=1;entryX=1;entryY=0.25;entryDx=0;entryDy=0;entryPerimeter=0;exitX=-0.025;exitY=0.617;exitDx=0;exitDy=0;exitPerimeter=0;labelBackgroundColor=none;strokeColor=#0B4D6A;fontColor=default;" parent="1" source="RMcQa0y9j6y76Bn0nbYR-56" target="RMcQa0y9j6y76Bn0nbYR-3" edge="1">
          <mxGeometry width="50" height="50" relative="1" as="geometry">
            <mxPoint x="480" y="630" as="sourcePoint" />
            <mxPoint x="470" y="605" as="targetPoint" />
          </mxGeometry>
        </mxCell>
        <mxCell id="RMcQa0y9j6y76Bn0nbYR-59" value="&lt;div&gt;目的是为了计算锁定的FH系统内部锁定的库存是否正确，不正确提前报警通知；正确会自动生成库存统计记录，清除不必要的库存历史记录，方便后续库存跟踪。&lt;/div&gt;&lt;div&gt;&lt;br&gt;&lt;/div&gt;" style="shape=note;whiteSpace=wrap;html=1;backgroundOutline=1;darkOpacity=0.05;align=left;labelBackgroundColor=none;fillColor=#09555B;strokeColor=#BAC8D3;fontColor=#EEEEEE;rounded=1;" parent="1" vertex="1">
          <mxGeometry x="10" y="80" width="900" height="100" as="geometry" />
        </mxCell>
        <mxCell id="tM9Cnk7v_0ooB2W26vRW-2" value="" style="endArrow=classic;html=1;rounded=1;labelBackgroundColor=none;strokeColor=#0B4D6A;fontColor=default;" parent="1" edge="1">
          <mxGeometry width="50" height="50" relative="1" as="geometry">
            <mxPoint x="870" y="479.5" as="sourcePoint" />
            <mxPoint x="990" y="479.5" as="targetPoint" />
          </mxGeometry>
        </mxCell>
        <mxCell id="hyk5TnRB2j8q7CAmKHLL-8" value="" style="edgeStyle=orthogonalEdgeStyle;rounded=1;orthogonalLoop=1;jettySize=auto;html=1;labelBackgroundColor=none;strokeColor=#0B4D6A;fontColor=default;" edge="1" parent="1" target="hyk5TnRB2j8q7CAmKHLL-7">
          <mxGeometry relative="1" as="geometry">
            <mxPoint x="890" y="279" as="sourcePoint" />
          </mxGeometry>
        </mxCell>
        <mxCell id="hyk5TnRB2j8q7CAmKHLL-11" value="" style="edgeStyle=orthogonalEdgeStyle;rounded=1;orthogonalLoop=1;jettySize=auto;html=1;strokeColor=#0B4D6A;" edge="1" parent="1" source="hyk5TnRB2j8q7CAmKHLL-1" target="RMcQa0y9j6y76Bn0nbYR-12">
          <mxGeometry relative="1" as="geometry" />
        </mxCell>
        <mxCell id="hyk5TnRB2j8q7CAmKHLL-1" value="&lt;font style=&quot;font-size: 10px;&quot;&gt;（F3库存=FH可用库存+FH锁定库存）&lt;/font&gt;" style="rhombus;whiteSpace=wrap;html=1;labelBackgroundColor=none;fillColor=#09555B;strokeColor=#BAC8D3;fontColor=#EEEEEE;rounded=1;" vertex="1" parent="1">
          <mxGeometry x="780" y="218.5" width="110" height="121" as="geometry" />
        </mxCell>
        <mxCell id="hyk5TnRB2j8q7CAmKHLL-6" value="" style="edgeStyle=orthogonalEdgeStyle;rounded=1;orthogonalLoop=1;jettySize=auto;html=1;labelBackgroundColor=none;strokeColor=#0B4D6A;fontColor=default;" edge="1" parent="1" source="hyk5TnRB2j8q7CAmKHLL-4">
          <mxGeometry relative="1" as="geometry">
            <mxPoint x="780" y="279" as="targetPoint" />
          </mxGeometry>
        </mxCell>
        <mxCell id="hyk5TnRB2j8q7CAmKHLL-4" value="遍历商品库存" style="rounded=1;whiteSpace=wrap;html=1;labelBackgroundColor=none;fillColor=#09555B;strokeColor=#BAC8D3;fontColor=#EEEEEE;" vertex="1" parent="1">
          <mxGeometry x="550" y="249" width="120" height="60" as="geometry" />
        </mxCell>
        <mxCell id="hyk5TnRB2j8q7CAmKHLL-7" value="生成库存存档记录" style="rounded=1;whiteSpace=wrap;html=1;labelBackgroundColor=none;fillColor=#09555B;strokeColor=#BAC8D3;fontColor=#EEEEEE;" vertex="1" parent="1">
          <mxGeometry x="980" y="269" width="121" height="61" as="geometry" />
        </mxCell>
        <mxCell id="hyk5TnRB2j8q7CAmKHLL-9" value="相同" style="text;html=1;align=center;verticalAlign=middle;whiteSpace=wrap;rounded=1;labelBackgroundColor=none;" vertex="1" parent="1">
          <mxGeometry x="900" y="230" width="60" height="30" as="geometry" />
        </mxCell>
      </root>
    </mxGraphModel>
  </diagram>
</mxfile>
